# xmcd CD database file
# Copyright (C) 1993-1998 Ti Kan
#
# Track frame offsets:
# 150
# 24937
# 47250
# 62712
# 81870
# 95532
# 108362
# 121602
# 133572
# 151647
# 164310
# 180090
# 198875
# 208537
# 221875
# 231742
# 244207
# 260385
# 271250
# 290772
# 301650
# 313310
#
# Disc length: 4408 seconds
# Revision: 0
# Processed by: cddbd v1.4b41PL1 Copyright (c) Steve Scherf et al.
# Submitted via: CDSpectrumPro v3.3.331
#
DISCID=29113616
DTITLE=Various Artist - Evergreen Memories II
DYEAR=1900
DGENRE=
TTITLE0=Louis Armstrong - Otehi-Tchor-Ni-Ya
TTITLE1=Mary Hopkyn - Those Were The Days
TTITLE2=Oscar Benton - Different Dreams
TTITLE3=Yane Birkin and Serge Gainsbourg - Je t'aime ... Moi non plus
TTITLE4=The Brotherhood Of Man - Save Your Kisses For Me
TTITLE5=Carpenters - Please Mr.Postman
TTITLE6=Roy Orbison - Oh Pretty Woman
TTITLE7=Creedance Clearwater Revival - Have You Ever Seen The Rain?
TTITLE8=Frankie Miller - Jealousy
TTITLE9=John Travolta - Olivia Newton John - You Are The One That I Want
TTITLE10=Roy Orbison - You've Got It
TTITLE11=Ray Charles - I Can't Stop Loving You
TTITLE12=Brenda Lee - I'm Sorry
TTITLE13=Louis Prima - Buona Sera
TTITLE14=Surfaris - Wipeout
TTITLE15=Meinz - Just Like Eddie
TTITLE16=The Righteous Brothers - Unchained Melody
TTITLE17=Ritchie Valens - Donna
TTITLE18=Barry and Eileen - If You Go
TTITLE19=Bruce Channel - Hey Baby
TTITLE20=Pat Boone - Speedy Gonzales
TTITLE21=Trini Lopez - This Land Is Your Land
EXTD=
EXTT0=
EXTT1=
EXTT2=
EXTT3=
EXTT4=
EXTT5=
EXTT6=
EXTT7=
EXTT8=
EXTT9=
EXTT10=
EXTT11=
EXTT12=
EXTT13=
EXTT14=
EXTT15=
EXTT16=
EXTT17=
EXTT18=
EXTT19=
EXTT20=
EXTT21=
PLAYORDER=
